# xmcd CD database file
#
# Track frame offsets:
#	150
#	27137
#	44558
#	57475
#	75599
#	92532
#	112336
#	127078
#	154323
#	175282
#	191313
#	208859
#	227502
#	239719
#	257593
#	273962
#	294512
#
# Disc length: 4185 seconds
#
# Revision: 0
# Processed by: cddbd v1.5.2PL0 Copyright (c) Steve Scherf et al.
# Submitted via: CDex 1.51
#
DISCID=f7105711
DTITLE=Trond Granlund - Kommer tid, kommer råd
DYEAR=2006
DGENRE=Country
TTITLE0=Kommer tid, kommer råd
TTITLE1=Bandidos i det fri
TTITLE2=Fred i sjela
TTITLE3=Annes Kro
TTITLE4=Himmel på Jord
TTITLE5=Det lyste over Eldorado
TTITLE6=Himmelvogna
TTITLE7=De tatovertes bataljon
TTITLE8=Tilbake til livet
TTITLE9=I live
TTITLE10=Våt hund
TTITLE11=Soho
TTITLE12=Bay Ridge Brooklyn
TTITLE13=Navn
TTITLE14=Gatebarn
TTITLE15=Manglerud
TTITLE16=Vålerenga Kjerke
EXTD=YEAR: 2006
EXTT0=
EXTT1=
EXTT2=
EXTT3=
EXTT4=
EXTT5=
EXTT6=
EXTT7=
EXTT8=
EXTT9=
EXTT10=
EXTT11=
EXTT12=
EXTT13=
EXTT14=
EXTT15=
EXTT16=
PLAYORDER=
